<svg width="48" height="48" viewBox="0 0 48 48" fill="none" xmlns="http://www.w3.org/2000/svg">
<path d="M23.9844 41.9994L13.5687 39.1079L11.2476 13.0742H36.7524L34.4288 39.1038L23.9844 41.9994Z" fill="#264DE4"/>
<path d="M32.4396 37.4466L34.4252 15.2031H24V39.7864L32.4396 37.4466Z" fill="#2965F1"/>
<path d="M16.5687 24.8594L16.8548 28.0523H24V24.8594H16.5687Z" fill="#EBEBEB"/>
<path d="M15.9937 18.3945L16.2839 21.5875H24V18.3945H15.9937Z" fill="#EBEBEB"/>
<path d="M24 33.1514L23.986 33.1551L20.43 32.1949L20.2027 29.6484H16.9975L17.4448 34.6618L23.9853 36.4775L24 36.4734V33.1514Z" fill="#EBEBEB"/>
<path d="M17.25 6H21.1172V7.61719H18.8672V9.23438H21.1172V10.8516H17.25V6Z" fill="black"/>
<path d="M21.8906 6H25.7578V7.40625H23.5078V7.6875H25.7578V10.9219H21.8906V9.44531H24.1406V9.16406H21.8906V6Z" fill="black"/>
<path d="M26.5312 6H30.3984V7.40625H28.1484V7.6875H30.3984V10.9219H26.5312V9.44531H28.7812V9.16406H26.5312V6Z" fill="black"/>
<path d="M31.4109 24.8571L31.9873 18.3945H23.989V21.5875H28.4881L28.1976 24.8571H23.989V28.05H27.9207L27.5501 32.191L23.989 33.1521V36.474L30.5346 34.6599L30.5827 34.1204L31.333 25.7145L31.4109 24.8571Z" fill="white"/>
</svg>
