<svg width="50" height="50" viewBox="0 0 50 50" fill="none" xmlns="http://www.w3.org/2000/svg">
<path d="M3.00347 28.4226C1.66551 27.0846 1.66551 24.9154 3.00348 23.5774L23.5774 3.00347C24.9154 1.66551 27.0846 1.66551 28.4226 3.00348L48.9965 23.5774C50.3345 24.9154 50.3345 27.0846 48.9965 28.4226L28.4226 48.9965C27.0846 50.3345 24.9154 50.3345 23.5774 48.9965L3.00347 28.4226Z" fill="#EE513B"/>
<path d="M18.9833 7.90881L17.0843 9.80778L21.9889 14.7123C21.7905 15.138 21.6797 15.6127 21.6797 16.1133C21.6797 17.5345 22.5727 18.7472 23.8281 19.2209V31.2186C22.5727 31.6923 21.6797 32.9049 21.6797 34.3262C21.6797 36.1599 23.1663 37.6465 25 37.6465C26.8338 37.6465 28.3203 36.1599 28.3203 34.3262C28.3203 33.0376 27.5864 31.9206 26.5137 31.3702V19.2371L31.202 23.9255C31.0133 24.3425 30.9082 24.8055 30.9082 25.293C30.9082 27.1267 32.3948 28.6133 34.2285 28.6133C36.0623 28.6133 37.5488 27.1267 37.5488 25.293C37.5488 23.4592 36.0623 21.9727 34.2285 21.9727C33.8722 21.9727 33.5289 22.0288 33.2072 22.1327L28.172 17.0975C28.2684 16.7865 28.3203 16.456 28.3203 16.1133C28.3203 14.2795 26.8338 12.793 25 12.793C24.6573 12.793 24.3268 12.8449 24.0158 12.9413L18.9833 7.90881Z" fill="white"/>
</svg>
