<svg width="48" height="48" viewBox="0 0 48 48" fill="none" xmlns="http://www.w3.org/2000/svg">
<path d="M38.1693 11.8613L35.5876 40.7831L23.9827 44.0004L12.4097 40.7877L9.8307 11.8613H38.1693Z" fill="#E44D26"/>
<path d="M24 41.5413L33.3773 38.9416L35.5836 14.2266H24V41.5413Z" fill="#F16529"/>
<path d="M24 21.3212H18.9812L19.3054 24.9541H24V28.5017H16.0609L15.104 17.7734H24V21.3212Z" fill="#EBEBEB"/>
<path d="M16.2195 30.2756H19.7808L20.0334 33.1051L23.9845 34.172L24.0001 34.1678V37.8589L23.9837 37.8634L16.7165 35.846L16.2195 30.2756Z" fill="#EBEBEB"/>
<path d="M14.2702 4H12.4674V9.39406H14.2703V7.58781H15.9195V9.39406H17.7224V4H15.9195V5.78125H14.2702V4Z" fill="black"/>
<path d="M18.5061 5.78875H20.0933L20.0934 9.39406H21.8963V5.78875H23.4842V4H18.5061V5.78875Z" fill="black"/>
<path d="M24.2743 4H26.1542L27.3106 5.89531L28.4659 4H30.3465V9.39406H28.551V6.72047L27.3106 8.63836H27.2796L26.0384 6.72047V9.39406H24.2743V4Z" fill="black"/>
<path d="M33.0472 4H31.2437V9.39406H35.5826V7.61109H33.0472V4Z" fill="black"/>
<path d="M23.9877 21.3212V17.7734H32.8747L32.5571 21.3212H23.9877Z" fill="white"/>
<path d="M28.3563 28.5018H23.9877V24.9541H32.2343L32.1477 25.9068L31.2607 35.8461L23.9877 37.8618V34.1708L27.9445 33.1029L28.3563 28.5018Z" fill="white"/>
</svg>
