<svg width="48" height="48" viewBox="0 0 48 48" fill="none" xmlns="http://www.w3.org/2000/svg">
<rect x="6" y="6" width="36" height="36" fill="#FFCA28"/>
<path d="M27.8571 35.9408L30.5077 34.187C30.7154 34.8396 32.0308 36.3895 33.6923 36.3895C35.3538 36.3895 36.1253 35.482 36.1253 34.8804C36.1253 33.2408 34.4287 32.6628 33.6138 32.3851C33.4809 32.3399 33.3715 32.3026 33.2967 32.27C33.2584 32.2533 33.2003 32.2311 33.1258 32.2027C32.2195 31.8564 28.8758 30.5789 28.8758 26.8759C28.8758 22.7972 32.8121 22.3281 33.7022 22.3281C34.2845 22.3281 37.0846 22.3995 38.4791 25.0201L35.9077 26.8147C35.344 25.6727 34.4073 25.2954 33.8308 25.2954C32.4066 25.2954 32.1099 26.3395 32.1099 26.8147C32.1099 28.1483 33.6572 28.746 34.9637 29.2507C35.3055 29.3827 35.6309 29.5084 35.9077 29.6392C37.3319 30.3122 39.4286 31.4134 39.4286 34.8804C39.4286 36.6168 37.9721 39.4281 34.3055 39.4281C29.3802 39.4281 28.0747 36.4711 27.8571 35.9408Z" fill="#3E3E3E"/>
<path d="M15 36.2891L17.7626 34.5361C17.9791 35.1884 18.8202 36.391 20.0407 36.391C21.2612 36.391 21.8858 35.1375 21.8858 34.5361V22.7138H25.2834V34.5361C25.3384 36.1668 24.434 39.4281 20.4427 39.4281C16.773 39.4281 15.2474 37.2471 15 36.2891Z" fill="#3E3E3E"/>
</svg>
