<svg width="50" height="50" viewBox="0 0 50 50" fill="none" xmlns="http://www.w3.org/2000/svg">
<circle cx="26" cy="26" r="24" fill="#0769AD"/>
<path d="M37.4125 21.5791C39.5673 21.5791 41.5403 20.8604 43.0658 19.6685C41.4821 21.7551 38.8584 23.1194 35.8896 23.1194C31.0532 23.1194 27.1326 19.499 27.1326 15.033C27.1326 12.5567 28.3379 10.3405 30.2363 8.85715C29.2401 10.1697 28.6555 11.7682 28.6555 13.4927C28.6555 17.9587 32.5762 21.5791 37.4125 21.5791Z" fill="#78CFF5"/>
<path d="M42.9823 27.1291C40.6592 28.9514 37.6517 30.0506 34.3666 30.0506C27.007 30.0506 21.0408 24.5338 21.0408 17.7284C21.0408 15.0889 21.9383 12.6433 23.4665 10.6382C20.585 12.8984 18.7563 16.2712 18.7563 20.0388C18.7563 26.8442 24.7225 32.361 32.0822 32.361C36.5874 32.361 40.5704 30.2937 42.9823 27.1291Z" fill="#78CFF5"/>
<path d="M43.1429 34.1773C39.8324 37.3363 35.2464 39.2922 30.1785 39.2922C20.0852 39.2922 11.9031 31.5342 11.9031 21.9642C11.9031 18.9317 12.7246 16.0811 14.1682 13.6017C10.8855 16.7343 8.85715 21.05 8.85715 25.8148C8.85715 35.3848 17.0393 43.1429 27.1326 43.1429C34.0276 43.1429 40.0307 39.5225 43.1429 34.1773Z" fill="#78CFF5"/>
</svg>
