<svg width="98" height="93" viewBox="0 0 98 93" fill="none" xmlns="http://www.w3.org/2000/svg">
<rect x="0.831543" y="0.552917" width="97.1499" height="92.3241" rx="10" fill="#FFCA28"/>
<path d="M62.796 81.5764C61.6477 80.183 62.2789 78.2108 63.8075 77.2496V77.2496C65.8153 75.987 68.829 76.8674 70.7527 78.2547C72.0982 79.225 73.7991 79.9813 75.6776 79.9813C79.814 79.9813 81.7344 77.8344 81.7344 76.4111C81.7344 72.5322 77.5107 71.1646 75.4821 70.5078C75.1514 70.4007 74.879 70.3125 74.6928 70.2354C74.5973 70.1959 74.4529 70.1435 74.2675 70.0761C72.0112 69.2569 63.6872 66.2347 63.6872 57.474C63.6872 47.8246 73.4864 46.7149 75.7023 46.7149C76.8953 46.7149 81.8272 46.8293 85.471 50.3249C86.8925 51.6885 86.3255 53.9251 84.684 55.0138V55.0138C82.819 56.2507 80.3119 55.3999 78.3317 54.3572C77.4913 53.9147 76.6666 53.7349 76.0223 53.7349C72.4769 53.7349 71.7383 56.205 71.7383 57.3293C71.7383 60.4843 75.5903 61.8983 78.8428 63.0923C79.6937 63.4047 80.5036 63.702 81.1928 64.0115C84.7382 65.6037 89.9579 68.209 89.9579 76.4111C89.9579 80.5192 86.332 87.1702 77.2042 87.1702C68.9854 87.1702 64.8154 84.0269 62.796 81.5764Z" fill="white"/>
<path d="M30.6408 82.378C29.4821 80.992 30.2109 79.1004 31.758 78.1675V78.1675C33.9558 76.8422 36.9565 78.0548 39.1953 79.3098C39.9284 79.7208 40.7666 79.985 41.6924 79.985C44.7307 79.985 46.2858 77.0193 46.2858 75.5967V51.8565C46.2858 49.5209 48.1793 47.6275 50.5149 47.6275V47.6275C52.8505 47.6275 54.744 49.5209 54.744 51.8565V75.5967C54.8808 79.4545 52.6294 87.1702 42.6932 87.1702C36.3266 87.1702 32.5523 84.6642 30.6408 82.378Z" fill="white"/>
</svg>
