<svg width="48" height="48" viewBox="0 0 48 48" fill="none" xmlns="http://www.w3.org/2000/svg">
<path d="M24 42C23.5039 42 23.0409 41.8677 22.6109 41.6362L18.2122 39.0234C17.5508 38.6596 17.8815 38.5273 18.0799 38.4612C18.9729 38.1635 19.1383 38.0974 20.0643 37.5682C20.1635 37.5021 20.2958 37.5351 20.395 37.6013L23.7685 39.6187C23.9008 39.6849 24.0661 39.6849 24.1654 39.6187L37.3615 31.9789C37.4938 31.9127 37.5599 31.7804 37.5599 31.6151V16.3684C37.5599 16.203 37.4938 16.0707 37.3615 16.0046L24.1654 8.3978C24.0331 8.33165 23.8677 8.33165 23.7685 8.3978L10.5724 16.0046C10.4401 16.0707 10.3739 16.2361 10.3739 16.3684V31.6151C10.3739 31.7474 10.4401 31.9127 10.5724 31.9789L14.1773 34.0625C16.1286 35.0547 17.3523 33.8971 17.3523 32.7395V17.6913C17.3523 17.4929 17.5177 17.2944 17.7492 17.2944H19.4359C19.6344 17.2944 19.8328 17.4598 19.8328 17.6913V32.7395C19.8328 35.3523 18.4107 36.8737 15.9302 36.8737C15.1695 36.8737 14.5742 36.8737 12.8875 36.0469L9.41479 34.0625C8.55489 33.5664 8.02573 32.6403 8.02573 31.6481V16.4015C8.02573 15.4093 8.55489 14.4832 9.41479 13.9871L22.6109 6.34727C23.4378 5.88424 24.5622 5.88424 25.3891 6.34727L38.5852 13.9871C39.4451 14.4832 39.9743 15.4093 39.9743 16.4015V31.6481C39.9743 32.6403 39.4451 33.5664 38.5852 34.0625L25.3891 41.7023C24.9591 41.9008 24.463 42 24 42ZM28.068 31.5158C22.2802 31.5158 21.0896 28.87 21.0896 26.621C21.0896 26.4226 21.2549 26.2242 21.4865 26.2242H23.2063C23.4047 26.2242 23.5701 26.3565 23.5701 26.5549C23.8346 28.3078 24.5953 29.1677 28.1011 29.1677C30.8792 29.1677 32.0698 28.5393 32.0698 27.051C32.0698 26.1911 31.7391 25.5627 27.4065 25.1328C23.8016 24.7689 21.5526 23.9752 21.5526 21.0978C21.5526 18.4189 23.8016 16.8314 27.5719 16.8314C31.8052 16.8314 33.8888 18.2866 34.1534 21.4616C34.1534 21.5609 34.1204 21.6601 34.0542 21.7593C33.9881 21.8254 33.8888 21.8916 33.7896 21.8916H32.0698C31.9045 21.8916 31.7391 21.7593 31.706 21.5939C31.3091 19.7749 30.2839 19.1796 27.5719 19.1796C24.5292 19.1796 24.1654 20.2379 24.1654 21.0317C24.1654 21.9908 24.5953 22.2885 28.6964 22.8176C32.7644 23.3468 34.6826 24.1075 34.6826 26.9518C34.6495 29.8622 32.2683 31.5158 28.068 31.5158Z" fill="#539E43"/>
</svg>
