<svg width="48" height="48" viewBox="0 0 48 48" fill="none" xmlns="http://www.w3.org/2000/svg">
<path d="M35.5992 18.3658C35.2258 18.2373 34.8388 18.1157 34.4403 18.0006C34.5058 17.7334 34.5659 17.4695 34.6194 17.2102C35.4966 12.9519 34.9231 9.52144 32.9645 8.39198C31.0864 7.30897 28.015 8.43818 24.9131 11.1377C24.6148 11.3973 24.3157 11.6721 24.0167 11.9602C23.8174 11.7696 23.6185 11.5854 23.4201 11.4093C20.1692 8.52276 16.9106 7.30634 14.954 8.43907C13.0777 9.52522 12.5221 12.7502 13.3117 16.7858C13.388 17.1756 13.4771 17.5737 13.5779 17.9784C13.1167 18.1093 12.6715 18.2489 12.2455 18.3974C8.43412 19.7262 6 21.8088 6 23.9689C6 26.2 8.61303 28.4378 12.5829 29.7947C12.8962 29.9017 13.2212 30.003 13.5563 30.0991C13.4475 30.5368 13.3529 30.9658 13.2735 31.3842C12.5206 35.3497 13.1086 38.4985 14.9798 39.5778C16.9127 40.6924 20.1565 39.5467 23.3152 36.7857C23.5648 36.5674 23.8154 36.336 24.0664 36.0934C24.3917 36.4066 24.7165 36.7031 25.0396 36.9812C28.0992 39.6141 31.121 40.6772 32.9905 39.5949C34.9214 38.4771 35.5489 35.0945 34.7342 30.9791C34.672 30.6648 34.5996 30.3437 34.5183 30.0169C34.7461 29.9495 34.9697 29.88 35.1878 29.8077C39.3148 28.4403 42 26.2298 42 23.9689C42 21.8009 39.4874 19.7043 35.5992 18.3658ZM34.7041 28.3479C34.5072 28.4131 34.3053 28.4761 34.0994 28.5372C33.6438 27.0948 33.0289 25.5611 32.2764 23.9764C32.9945 22.4296 33.5857 20.9154 34.0285 19.4824C34.3968 19.589 34.7542 19.7014 35.0986 19.82C38.43 20.9668 40.4621 22.6624 40.4621 23.9689C40.4621 25.3606 38.2675 27.1672 34.7041 28.3479ZM33.2255 31.2778C33.5858 33.0976 33.6372 34.7429 33.3986 36.0291C33.1842 37.1848 32.753 37.9554 32.2199 38.264C31.0853 38.9207 28.6592 38.0671 26.0426 35.8154C25.7426 35.5573 25.4405 35.2817 25.1374 34.99C26.1518 33.8806 27.1656 32.5909 28.155 31.1585C29.8954 31.0041 31.5396 30.7516 33.0307 30.4069C33.1041 30.7032 33.1693 30.9937 33.2255 31.2778ZM18.2732 38.1505C17.1648 38.542 16.2819 38.5532 15.7483 38.2455C14.6127 37.5905 14.1407 35.0623 14.7846 31.671C14.8584 31.2826 14.9461 30.8836 15.0473 30.4758C16.522 30.8019 18.1542 31.0366 19.8987 31.178C20.8948 32.5796 21.9379 33.8679 22.9891 34.996C22.7594 35.2177 22.5307 35.4288 22.3032 35.6277C20.9064 36.8486 19.5067 37.7148 18.2732 38.1505ZM13.0803 28.3394C11.3249 27.7394 9.87521 26.9597 8.88153 26.1087C7.98864 25.3441 7.53784 24.5849 7.53784 23.9689C7.53784 22.6581 9.49221 20.986 12.7517 19.8496C13.1472 19.7117 13.5613 19.5817 13.9909 19.4597C14.4414 20.925 15.0323 22.4571 15.7455 24.0064C15.0231 25.5786 14.4238 27.1351 13.9689 28.6176C13.6626 28.5296 13.3658 28.4369 13.0803 28.3394ZM14.821 16.4905C14.1444 13.0329 14.5938 10.4246 15.7245 9.77007C16.9288 9.07282 19.592 10.067 22.399 12.5593C22.5784 12.7186 22.7585 12.8854 22.9392 13.0579C21.8932 14.181 20.8597 15.4596 19.8724 16.853C18.1793 17.0099 16.5586 17.262 15.0685 17.5996C14.9748 17.2227 14.8918 16.8525 14.821 16.4905ZM30.3498 20.3249C29.9935 19.7096 29.6278 19.1089 29.255 18.5245C30.4037 18.6698 31.5042 18.8625 32.5376 19.0984C32.2274 20.0928 31.8406 21.1325 31.3854 22.1983C31.0589 21.5783 30.7135 20.9532 30.3498 20.3249ZM24.0172 14.157C24.7265 14.9255 25.4369 15.7835 26.1356 16.7144C25.4315 16.6812 24.7187 16.6639 24 16.6639C23.2881 16.6639 22.5805 16.6808 21.8808 16.7135C22.5802 15.7912 23.2967 14.9343 24.0172 14.157ZM17.644 20.3356C17.2882 20.9526 16.9492 21.5743 16.6278 22.1971C16.1799 21.135 15.7968 20.0906 15.4838 19.0821C16.511 18.8523 17.6063 18.6643 18.7476 18.5219C18.3695 19.1116 18.0008 19.7167 17.644 20.3354V20.3356ZM18.7805 29.5257C17.6013 29.3942 16.4895 29.2159 15.4626 28.9924C15.7806 27.9659 16.1722 26.8992 16.6295 25.8142C16.9518 26.4366 17.2921 27.0585 17.6501 27.6769H17.6502C18.0148 28.3069 18.3927 28.9239 18.7805 29.5257ZM24.0597 33.8893C23.3308 33.1029 22.6038 32.233 21.8937 31.2972C22.583 31.3242 23.2858 31.3381 24 31.3381C24.7338 31.3381 25.4592 31.3215 26.1731 31.2898C25.4721 32.2424 24.7643 33.1137 24.0597 33.8893ZM31.4001 25.7589C31.8813 26.8556 32.2869 27.9167 32.609 28.9257C31.5652 29.1639 30.4382 29.3557 29.2508 29.4982C29.6245 28.9059 29.9934 28.2949 30.3559 27.6663C30.7226 27.0304 31.0709 26.3935 31.4001 25.7589ZM29.0238 26.898C28.461 27.8737 27.8833 28.8052 27.2968 29.6844C26.2285 29.7608 25.1249 29.8002 24 29.8002C22.8797 29.8002 21.79 29.7654 20.7406 29.6973C20.1304 28.8065 19.5401 27.8723 18.981 26.9064H18.9811C18.4234 25.9432 17.9101 24.9718 17.4451 24.0058C17.91 23.0377 18.4219 22.0652 18.9764 21.1037L18.9763 21.1039C19.5322 20.1398 20.1174 19.2101 20.7219 18.3249C21.7925 18.244 22.8904 18.2018 23.9999 18.2018H24C25.1145 18.2018 26.2138 18.2443 27.2841 18.326C27.8794 19.2047 28.4606 20.1313 29.0187 21.0955C29.5832 22.0706 30.1017 23.0366 30.5707 23.984C30.1031 24.9477 29.5857 25.9234 29.0238 26.898ZM32.1963 9.72432C33.4018 10.4195 33.8706 13.2233 33.1132 16.8998C33.0649 17.1344 33.0105 17.3734 32.9514 17.6155C31.4578 17.2709 29.836 17.0145 28.1379 16.8551C27.1487 15.4465 26.1237 14.1659 25.0947 13.0572C25.3714 12.791 25.6476 12.5373 25.9227 12.2978C28.5805 9.98486 31.0645 9.07167 32.1963 9.72432ZM24 20.7543C25.7754 20.7543 27.2147 22.1935 27.2147 23.9689C27.2147 25.7443 25.7754 27.1836 24 27.1836C22.2246 27.1836 20.7853 25.7443 20.7853 23.9689C20.7853 22.1935 22.2246 20.7543 24 20.7543Z" fill="#00D8FF"/>
</svg>
