<svg width="68" height="48" viewBox="0 0 68 48" fill="none" xmlns="http://www.w3.org/2000/svg">
<path fill-rule="evenodd" clip-rule="evenodd" d="M34 0C24.9516 0 19.2484 5.36204 17 16.0215C20.4 10.6595 24.3484 8.6568 28.9 10.0135C31.4774 10.7887 33.3419 12.9852 35.371 15.4401C38.7161 19.4455 42.5548 24.0323 51 24.0323C60.0484 24.0323 65.7516 18.6703 68 8.01076C64.6 13.3728 60.6516 15.3755 56.1 14.0189C53.5226 13.2436 51.6581 11.0471 49.629 8.59219C46.2839 4.5868 42.4452 0 34 0ZM17 23.9677C7.95161 23.9677 2.24839 29.3297 0 39.9892C3.4 34.6272 7.34839 32.6245 11.9 33.9812C14.4774 34.7564 16.3419 36.9529 18.371 39.4078C21.7161 43.4132 25.5548 48 34 48C43.0484 48 48.7516 42.638 51 31.9785C47.6 37.3405 43.6516 39.3432 39.1 37.9865C36.5226 37.2113 34.6581 35.0148 32.629 32.5599C29.2839 28.6191 25.4452 23.9677 17 23.9677Z" fill="#06B6D4"/>
</svg>
