<svg width="49" height="48" viewBox="0 0 49 48" fill="none" xmlns="http://www.w3.org/2000/svg">
<rect x="7.00098" y="5.64697" width="36.7059" height="36.7059" rx="18.3529" fill="white"/>
<circle cx="24.6475" cy="24" r="24" fill="#4353FF"/>
<path d="M32.1786 19.2879C32.1786 19.2879 29.6006 27.3728 29.39 28.0404C28.7408 22.9734 28.0855 17.9072 27.4241 12.8418C23.0313 12.8418 20.6826 15.9682 19.4413 19.2681L16.0433 28.0603C16.0235 27.4297 15.5664 19.3634 15.5664 19.3634C15.2962 15.3204 11.5922 12.859 8.5957 12.859L12.2241 34.8495C16.8263 34.8297 19.3075 31.7219 20.607 28.422C20.607 28.422 23.3757 21.2711 23.4897 20.9465C23.5095 21.2512 25.4768 34.8482 25.4768 34.8482C30.0974 34.8482 32.58 31.9312 33.9153 28.7465L40.3892 12.8603C35.8256 12.8603 33.4198 15.9682 32.1786 19.2866V19.2879Z" fill="white"/>
</svg>
