<svg width="48" height="49" viewBox="0 0 48 49" fill="none" xmlns="http://www.w3.org/2000/svg">
<circle cx="24" cy="24.9922" r="18" fill="#028CB0"/>
<path d="M11.7284 24.9905C11.7284 29.8535 14.5569 34.0419 18.6475 36.0328L12.7945 19.997C12.0917 21.5679 11.7284 23.2695 11.7284 24.9905ZM24 37.2622C25.4252 37.2622 26.7959 37.0119 28.0797 36.5659L27.9926 36.4027L24.2176 26.0675L20.5404 36.7617C21.6284 37.0881 22.7924 37.2622 24 37.2622ZM25.6863 19.2355L30.1249 32.4318L31.3543 28.3413C31.8765 26.6441 32.279 25.4257 32.279 24.3704C32.279 22.8473 31.7351 21.8029 31.2781 20.9979C30.6471 19.9752 30.0706 19.1158 30.0706 18.1149C30.0706 16.9835 30.9191 15.9391 32.1376 15.9391H32.2899C30.0287 13.8633 27.0695 12.7138 24 12.7189C21.9676 12.7185 19.9669 13.2234 18.1781 14.1881C16.3892 15.1528 14.8682 16.547 13.7519 18.2455L14.5352 18.2672C15.8189 18.2672 17.7989 18.104 17.7989 18.104C18.4734 18.0714 18.5496 19.0396 17.8859 19.1158C17.8859 19.1158 17.2223 19.2028 16.4717 19.2355L20.9538 32.5297L23.641 24.4792L21.7263 19.2355C21.2974 19.2118 20.8693 19.1755 20.4425 19.1267C19.7789 19.0831 19.8551 18.0714 20.5187 18.104C20.5187 18.104 22.5422 18.2672 23.7498 18.2672C25.0335 18.2672 27.0135 18.104 27.0135 18.104C27.6771 18.0714 27.7642 19.0396 27.1006 19.1158C27.1006 19.1158 26.4369 19.1919 25.6863 19.2355ZM30.1685 35.5977C32.0249 34.5182 33.5656 32.9705 34.6366 31.1091C35.7076 29.2478 36.2714 27.138 36.2717 24.9905C36.2717 22.8582 35.7277 20.8564 34.7703 19.1049C34.9648 21.0319 34.673 22.9769 33.9218 24.7621L30.1685 35.5977ZM24 39.1334C20.2491 39.1334 16.6518 37.6433 13.9995 34.991C11.3472 32.3387 9.85715 28.7414 9.85715 24.9905C9.85715 21.2396 11.3472 17.6423 13.9995 14.99C16.6518 12.3377 20.2491 10.8477 24 10.8477C27.7509 10.8477 31.3482 12.3377 34.0005 14.99C36.6528 17.6423 38.1429 21.2396 38.1429 24.9905C38.1429 28.7414 36.6528 32.3387 34.0005 34.991C31.3482 37.6433 27.7509 39.1334 24 39.1334Z" fill="white"/>
</svg>
